<svg width="653" height="654" viewBox="0 0 653 654" fill="none" xmlns="http://www.w3.org/2000/svg">
    <rect x="1.07247" y="327.156" width="460.445" height="460.445" rx="9.5975" transform="rotate(-45 1.07247 327.156)" fill="#F4F4F9" stroke="url(#paint0_linear_0_70)" stroke-width="1.02918"/>
    <rect x="469" y="203.73" width="30.7306" height="30.7306" rx="0.730508" transform="rotate(-45 469 203.73)" fill="url(#paint1_linear_0_70)"/>
    <rect x="126" y="446.292" width="31.5258" height="31.5258" rx="0.74941" transform="rotate(-45 126 446.292)" fill="#55BBEE"/>
    <g filter="url(#filter0_b_0_70)">
        <rect x="36.1553" y="327.795" width="406.249" height="406.249" rx="10.5498" transform="rotate(-45 36.1553 327.795)" fill="#151518" fill-opacity="0.02"/>
        <rect x="37.6873" y="327.795" width="404.082" height="404.082" rx="9.46653" transform="rotate(-45 37.6873 327.795)" stroke="url(#paint2_linear_0_70)" stroke-width="2.16656"/>
    </g>
    <rect x="83.5566" y="327.252" width="339.547" height="339.547" rx="7.85" transform="rotate(-45 83.5566 327.252)" fill="url(#paint3_linear_0_70)"/>
    <path d="M422.75 215.768H225V251.925H422.75V215.768Z" fill="#0C3878"/>
    <path fill-rule="evenodd" clip-rule="evenodd" d="M225 305.714H261.184V251.925L225 215.768V305.714Z" fill="#0A1839"/>
    <path fill-rule="evenodd" clip-rule="evenodd" d="M225 305.715L286.09 365.975H337.537L225 254.307V305.715Z" fill="#0E2552"/>
    <path d="M423 402.487H225.25V438.643H423V402.487Z" fill="#28BAE0"/>
    <path fill-rule="evenodd" clip-rule="evenodd" d="M422.751 349.088V439.069L386.566 402.913V349.088H422.751Z" fill="#00A9DB"/>
    <path fill-rule="evenodd" clip-rule="evenodd" d="M362.442 288.863L422.749 349.088V400.496L310.994 288.863H362.442Z" fill="#04BAEE"/>
    <defs>
        <filter id="filter0_b_0_70" x="20.0076" y="24.3863" width="606.817" height="606.818" filterUnits="userSpaceOnUse" color-interpolation-filters="sRGB">
            <feFlood flood-opacity="0" result="BackgroundImageFix"/>
            <feGaussianBlur in="BackgroundImageFix" stdDeviation="10.2588"/>
            <feComposite in2="SourceAlpha" operator="in" result="effect1_backgroundBlur_0_70"/>
            <feBlend mode="normal" in="SourceGraphic" in2="effect1_backgroundBlur_0_70" result="shape"/>
        </filter>
        <linearGradient id="paint0_linear_0_70" x1="538.38" y1="533.66" x2="28.7918" y2="425.14" gradientUnits="userSpaceOnUse">
            <stop stop-color="white"/>
            <stop offset="1" stop-color="white" stop-opacity="0"/>
        </linearGradient>
        <linearGradient id="paint1_linear_0_70" x1="465.821" y1="219.271" x2="518.749" y2="222.748" gradientUnits="userSpaceOnUse">
            <stop stop-color="#3346CF"/>
            <stop offset="1" stop-color="#3346CF" stop-opacity="0"/>
        </linearGradient>
        <linearGradient id="paint2_linear_0_70" x1="239.28" y1="327.795" x2="331.851" y2="623.204" gradientUnits="userSpaceOnUse">
            <stop stop-color="white" stop-opacity="0.6"/>
            <stop offset="1" stop-color="white" stop-opacity="0"/>
        </linearGradient>
        <linearGradient id="paint3_linear_0_70" x1="442.552" y1="478.001" x2="-66.9187" y2="558.258" gradientUnits="userSpaceOnUse">
            <stop stop-color="#FAFBFF"/>
            <stop offset="1" stop-color="#EDEFF7"/>
        </linearGradient>
    </defs>
</svg>
